<svg width="15" height="29" viewBox="0 0 15 29" fill="none" xmlns="http://www.w3.org/2000/svg">
<path d="M9.05615 0.791748V5.17163H6.80029V0.791748H9.05615ZM8.77783 24.7126V28.6384H6.53662V24.7126H8.77783ZM10.9897 19.9812C10.9897 19.4148 10.8726 18.9216 10.6382 18.5017C10.4136 18.072 10.0425 17.6863 9.5249 17.3445C9.00732 16.9929 8.31396 16.6658 7.44482 16.363C6.19482 15.9236 5.10107 15.4304 4.16357 14.8835C3.23584 14.3269 2.51318 13.6433 1.99561 12.8328C1.48779 12.0125 1.23389 10.9919 1.23389 9.77124C1.23389 8.57007 1.50732 7.53003 2.0542 6.65112C2.61084 5.77222 3.38232 5.09351 4.36865 4.61499C5.35498 4.13647 6.50732 3.89722 7.82568 3.89722C8.84131 3.89722 9.75439 4.04858 10.5649 4.35132C11.3853 4.65405 12.0835 5.09839 12.6597 5.68433C13.2358 6.27026 13.6753 6.99292 13.978 7.85229C14.2905 8.7019 14.4468 9.67847 14.4468 10.782H10.9312C10.9312 10.157 10.8579 9.60034 10.7114 9.11206C10.5747 8.61401 10.3696 8.19409 10.0962 7.85229C9.82275 7.50073 9.49072 7.23218 9.1001 7.04663C8.71924 6.86108 8.28467 6.76831 7.79639 6.76831C7.10303 6.76831 6.53174 6.90015 6.08252 7.16382C5.6333 7.41772 5.30127 7.76929 5.08643 8.21851C4.88135 8.66772 4.77881 9.18042 4.77881 9.75659C4.77881 10.3132 4.88623 10.8015 5.10107 11.2214C5.31592 11.6414 5.68213 12.0222 6.19971 12.364C6.72705 12.696 7.44971 13.033 8.36768 13.3748C9.62744 13.824 10.7163 14.3269 11.6343 14.8835C12.562 15.4304 13.2749 16.1091 13.7729 16.9197C14.2808 17.7205 14.5347 18.7312 14.5347 19.9519C14.5347 21.2117 14.2417 22.281 13.6558 23.1599C13.0796 24.0388 12.269 24.7078 11.2241 25.1667C10.189 25.616 8.98291 25.8406 7.60596 25.8406C6.73682 25.8406 5.87256 25.7283 5.01318 25.5037C4.16357 25.2693 3.39209 24.8884 2.69873 24.3611C2.00537 23.8337 1.45361 23.1355 1.04346 22.2664C0.633301 21.3875 0.428223 20.3132 0.428223 19.0437H3.97314C3.97314 19.8054 4.07568 20.4402 4.28076 20.948C4.48584 21.4558 4.76416 21.8562 5.11572 22.1492C5.46729 22.4421 5.85791 22.6521 6.2876 22.7791C6.72705 22.906 7.1665 22.9695 7.60596 22.9695C8.33838 22.9695 8.95361 22.8474 9.45166 22.6033C9.95947 22.3494 10.3403 21.9978 10.5942 21.5486C10.8579 21.0896 10.9897 20.5671 10.9897 19.9812Z" fill="#194668"/>
</svg>
