<svg width="14" height="14" viewBox="0 0 14 14" fill="none" xmlns="http://www.w3.org/2000/svg">
<g clip-path="url(#clip0_1_311)">
<path d="M1.65977 7.9419V3.8794C1.65977 3.81253 1.6466 3.74632 1.62101 3.68454C1.59542 3.62276 1.55791 3.56662 1.51063 3.51934C1.46334 3.47205 1.40721 3.43454 1.34543 3.40895C1.28365 3.38336 1.21743 3.37019 1.15056 3.37019C1.08369 3.37019 1.01747 3.38336 0.955694 3.40895C0.893913 3.43454 0.837778 3.47205 0.790494 3.51934C0.743209 3.56662 0.705701 3.62276 0.680111 3.68454C0.654521 3.74632 0.64135 3.81253 0.64135 3.8794V10.5312C0.64135 10.5981 0.654521 10.6643 0.680111 10.7261C0.705701 10.7879 0.743209 10.844 0.790494 10.8913C0.837778 10.9386 0.893913 10.9761 0.955694 11.0017C1.01747 11.0273 1.08369 11.0405 1.15056 11.0405C1.21743 11.0405 1.28365 11.0273 1.34543 11.0017C1.40721 10.9761 1.46334 10.9386 1.51063 10.8913C1.55791 10.844 1.59542 10.7879 1.62101 10.7261C1.6466 10.6643 1.65977 10.5981 1.65977 10.5312V9.57704L12.0891 9.55286V10.5065C12.0891 10.5734 12.1023 10.6396 12.1279 10.7014C12.1535 10.7631 12.191 10.8192 12.2383 10.8665C12.2855 10.9138 12.3416 10.9513 12.4034 10.9769C12.4652 11.0025 12.5314 11.0156 12.5982 11.0156C12.6651 11.0156 12.7313 11.0025 12.793 10.9769C12.8548 10.9513 12.9109 10.9138 12.9582 10.8665C13.0055 10.8192 13.043 10.7631 13.0686 10.7014C13.0941 10.6396 13.1073 10.5734 13.1073 10.5065V7.91772L1.65977 7.9419Z" fill="#194668"/>
<path d="M13.1073 7.50588H5.36711V5.58812C5.36711 5.32096 5.47322 5.06474 5.66211 4.87581C5.851 4.68687 6.10719 4.58069 6.37435 4.58062H11.0733C11.6128 4.58062 12.1301 4.79492 12.5116 5.17636C12.893 5.55781 13.1073 6.07516 13.1073 6.6146V7.50588Z" fill="#194668"/>
<path d="M3.55517 7.28644C4.24169 7.28644 4.79823 6.72991 4.79823 6.04338C4.79823 5.35686 4.24169 4.80032 3.55517 4.80032C2.86865 4.80032 2.31211 5.35686 2.31211 6.04338C2.31211 6.72991 2.86865 7.28644 3.55517 7.28644Z" fill="#194668"/>
</g>
<defs>
<clipPath id="clip0_1_311">
<rect width="13" height="13" fill="white" transform="translate(0.374329 0.705322)"/>
</clipPath>
</defs>
</svg>
