<svg width="13" height="13" viewBox="0 0 13 13" fill="none" xmlns="http://www.w3.org/2000/svg">
<g clip-path="url(#clip0_1_306)">
<path d="M0.843613 8.30741V9.27442C0.843613 10.392 1.66493 11.3212 2.73565 11.4904V12.2053H3.4388V11.518H9.30989V12.2053H10.013V11.4904C11.0838 11.3212 11.9051 10.392 11.9051 9.27442V8.30741H0.843613ZM1.54676 6.19686V2.14023C1.54676 1.46103 2.09935 0.908471 2.77854 0.908471C3.40756 0.908471 3.92759 1.38247 4.00107 1.99199C3.26888 2.15689 2.72018 2.81199 2.72018 3.59326V4.0621H6.00359V3.59326C6.00359 2.80637 5.447 2.14735 4.70696 1.98835C4.62912 0.992236 3.79428 0.205322 2.77854 0.205322C1.71162 0.205322 0.843613 1.07331 0.843613 2.14023V6.19686H0.374512V7.60426H12.3742V6.19686H1.54676Z" fill="#194668"/>
</g>
<defs>
<clipPath id="clip0_1_306">
<rect width="12" height="12" fill="white" transform="translate(0.374329 0.205322)"/>
</clipPath>
</defs>
</svg>
