<svg width="34" height="33" viewBox="0 0 34 33" fill="none" xmlns="http://www.w3.org/2000/svg">
<path d="M31.875 15.1871H3.54164V3.24463C3.54164 2.43713 4.2925 1.72878 5.14954 1.72878H8.11039C8.94625 1.72878 9.61915 2.40878 9.62625 3.23753C8.245 3.58463 7.08336 4.85963 7.08336 6.20542V8.10378C7.08336 8.49338 7.40211 8.81213 7.79171 8.81213H12.75C13.1396 8.81213 13.4584 8.49338 13.4584 8.10378V6.20549C13.4584 4.83838 12.3746 3.58463 11.043 3.24463C11.043 1.62963 9.73257 0.312134 8.11046 0.312134H5.14961C3.51336 0.312134 2.125 1.65799 2.125 3.24463V15.1871C0.95625 15.18 0.00710547 16.1292 0 17.298C0 17.9071 0.255 18.4809 0.708355 18.8846V22.5963C0.708355 25.4792 1.99046 27.9513 4.06586 29.5592L2.90421 31.8683C2.72711 32.2154 2.86882 32.6404 3.22296 32.8175C3.57007 32.9946 3.99507 32.8528 4.17211 32.4987L5.26296 30.3241C6.69382 31.0891 8.29461 31.4857 9.91671 31.4716H24.0834C25.7055 31.4857 27.3062 31.0891 28.7371 30.3241L29.828 32.4987C30.0051 32.8458 30.4301 32.9874 30.7771 32.8175C31.1242 32.6474 31.2659 32.2153 31.0959 31.8683L29.9342 29.5521C32.0096 27.9512 33.2917 25.4721 33.2917 22.5892V18.8775C33.738 18.4879 34.0001 17.9142 34.0001 17.3121C34 16.1363 33.0509 15.1871 31.875 15.1871ZM10.3346 4.56213C11.1775 4.56213 12.0417 5.39088 12.0417 6.20549V7.39549H8.5V6.20549C8.5 5.41924 9.45625 4.56213 10.3346 4.56213ZM31.875 22.5963C31.875 26.8534 28.5246 30.0622 24.0834 30.0622H9.91664C5.47539 30.0621 2.125 26.8534 2.125 22.5963V19.4372H31.875V22.5963ZM31.875 18.0205H2.14625C1.79211 18.0205 1.47336 17.7655 1.42375 17.4184C1.36 16.9792 1.7 16.6038 2.125 16.6038H31.8538C32.2079 16.6038 32.5266 16.8588 32.5762 17.2059C32.64 17.6451 32.3 18.0205 31.875 18.0205Z" fill="#194668"/>
</svg>
