<svg width="32" height="31" viewBox="0 0 32 31" fill="none" xmlns="http://www.w3.org/2000/svg">
<path d="M31.948 21.1643C31.9973 21.0323 32.0147 20.887 31.9693 20.7403L29.3333 12.1737V4.26971C29.3333 2.4324 27.8386 0.936401 26 0.936401H6C4.16131 0.936401 2.66669 2.4324 2.66669 4.26971V12.1737L0.0306875 20.7403C-0.014625 20.8857 0.0026875 21.031 0.052 21.1643C0.02 21.3057 0 21.451 0 21.603V29.603C0 29.971 0.298687 30.2697 0.666687 30.2697H3.33337C3.70131 30.2697 4 29.971 4 29.603V27.603H28V29.603C28 29.971 28.2987 30.2697 28.6667 30.2697H31.3334C31.7014 30.2697 32.0001 29.971 32.0001 29.603V21.603C32 21.451 31.98 21.3057 31.948 21.1643ZM4 4.26971C4 3.16703 4.89731 2.26971 6 2.26971H26C27.1027 2.26971 28 3.16703 28 4.26971V11.603H26.188L25.5667 9.11771C25.4585 8.68483 25.2086 8.30058 24.8568 8.02611C24.505 7.75163 24.0715 7.60271 23.6253 7.60303H19.3333C18.2306 7.60303 17.3333 8.50034 17.3333 9.60303V11.603H14.6666V9.60434C14.6666 8.50165 13.7693 7.60434 12.6666 7.60434H8.37463C7.45594 7.60434 6.65731 8.22834 6.43331 9.11903L5.812 11.603H4V4.26971ZM24.8187 12.6803C24.7562 12.7603 24.6762 12.8249 24.585 12.8693C24.4937 12.9137 24.3935 12.9366 24.292 12.9363H19.3333C18.9666 12.9363 18.6666 12.6377 18.6666 12.2697V9.60303C18.6666 9.23503 18.9666 8.93634 19.3333 8.93634H23.6266C23.9333 8.93634 24.1986 9.14303 24.2733 9.44034L24.94 12.107C24.9652 12.2055 24.9674 12.3084 24.9463 12.4079C24.9253 12.5073 24.8816 12.6005 24.8187 12.6803ZM13.3347 9.60303V12.263C13.3347 12.2657 13.3334 12.267 13.3334 12.2697V12.2724C13.3321 12.6391 13.0334 12.9364 12.6681 12.9364H7.70937C7.60786 12.9368 7.50761 12.9139 7.41631 12.8695C7.32501 12.8252 7.24509 12.7605 7.18269 12.6804C7.11983 12.6006 7.0762 12.5073 7.05516 12.4079C7.03412 12.3085 7.03625 12.2056 7.06138 12.1071L7.72806 9.4404C7.76436 9.29614 7.84787 9.16817 7.96529 9.07684C8.08271 8.98551 8.22731 8.93608 8.37606 8.9364H12.6681C13.0347 8.93634 13.3347 9.23503 13.3347 9.60303ZM3.82531 12.9363H5.832C5.90269 13.1363 5.99469 13.3283 6.12931 13.5017C6.51331 13.9897 7.088 14.2697 7.708 14.2697H12.6667C13.5347 14.2697 14.268 13.7097 14.544 12.9363H17.456C17.732 13.711 18.4653 14.2697 19.3333 14.2697H24.292C24.912 14.2697 25.4853 13.9897 25.8693 13.5017C26.004 13.3297 26.096 13.1363 26.1666 12.9363H28.1746L30.2333 19.627C30.156 19.6177 30.08 19.603 30 19.603H2C1.92 19.603 1.844 19.6177 1.768 19.627L3.82531 12.9363ZM2.66669 28.9363H1.33331V27.603H2.66663L2.66669 28.9363ZM30.6667 28.9363H29.3334V27.603H30.6667V28.9363ZM30.6667 26.2697H1.33331V21.603C1.33331 21.235 1.63331 20.9363 2 20.9363H30C30.3667 20.9363 30.6667 21.235 30.6667 21.603V26.2697Z" fill="#194668"/>
</svg>
