<svg width="28" height="29" viewBox="0 0 28 29" fill="none" xmlns="http://www.w3.org/2000/svg">
<circle cx="14" cy="14.543" r="14" fill="#5586AB"/>
<g clip-path="url(#clip0_103_38)">
<path d="M21.5645 18.2854L19.3317 16.0525C18.5342 15.2551 17.1786 15.5741 16.8596 16.6107C16.6203 17.3285 15.8229 17.7272 15.1052 17.5677C13.5103 17.1689 11.3572 15.0956 10.9585 13.4209C10.7192 12.7032 11.1977 11.9058 11.9154 11.6666C12.9521 11.3476 13.2711 9.99192 12.4736 9.19448L10.2408 6.96163C9.60282 6.40342 8.64589 6.40342 8.08768 6.96163L6.57253 8.47677C5.05738 10.0717 6.73202 14.2981 10.48 18.0461C14.228 21.7941 18.4545 23.5485 20.0494 21.9536L21.5645 20.4385C22.1228 19.8005 22.1228 18.8436 21.5645 18.2854Z" fill="white"/>
</g>
<defs>
<clipPath id="clip0_103_38">
<rect width="16" height="16" fill="white" transform="translate(6 6.54297)"/>
</clipPath>
</defs>
</svg>
