<svg width="44" height="44" viewBox="0 0 44 44" fill="none" xmlns="http://www.w3.org/2000/svg">
<path d="M22.0836 40.7957C18.3038 40.7957 14.6089 39.6748 11.4661 37.5749C8.32325 35.4749 5.87373 32.4902 4.42726 28.9981C2.98078 25.506 2.60232 21.6634 3.33973 17.9562C4.07713 14.249 5.89729 10.8437 8.57003 8.17098C11.2428 5.49824 14.648 3.67809 18.3552 2.94068C22.0624 2.20327 25.905 2.58174 29.3971 4.02821C32.8892 5.47469 35.874 7.92421 37.9739 11.067C40.0739 14.2098 41.1947 17.9048 41.1947 21.6846C41.1947 26.7532 39.1813 31.6141 35.5972 35.1982C32.0132 38.7822 27.1522 40.7957 22.0836 40.7957ZM22.0836 5.11763C18.807 5.11763 15.6039 6.08927 12.8795 7.90967C10.1551 9.73007 8.03168 12.3175 6.77776 15.3447C5.52385 18.3719 5.19577 21.703 5.83501 24.9166C6.47425 28.1303 8.0521 31.0823 10.369 33.3992C12.686 35.7161 15.6379 37.294 18.8516 37.9332C22.0652 38.5724 25.3963 38.2444 28.4235 36.9904C31.4507 35.7365 34.0381 33.6131 35.8585 30.8887C37.6789 28.1643 38.6506 24.9612 38.6506 21.6846C38.6474 17.2917 36.901 13.0797 33.7947 9.97347C30.6885 6.86725 26.4765 5.1208 22.0836 5.11763Z" fill="white"/>
<path d="M17.1028 29.2215C16.6879 29.2243 16.2786 29.1255 15.9106 28.9338C15.5427 28.7421 15.2271 28.4634 14.9916 28.1218C14.756 27.7803 14.6076 27.3863 14.5592 26.9742C14.5108 26.5621 14.5639 26.1445 14.7139 25.7576L17.3058 19.0807C17.4986 18.588 17.7912 18.1405 18.1654 17.7663C18.5395 17.3922 18.987 17.0996 19.4797 16.9068L26.1567 14.3388C26.6174 14.1584 27.1207 14.1162 27.6049 14.2174C28.0892 14.3187 28.5335 14.5589 28.8833 14.9088C29.2332 15.2586 29.4734 15.7029 29.5746 16.1872C29.6759 16.6714 29.6337 17.1747 29.4533 17.6354L26.8614 24.2885C26.6686 24.7812 26.376 25.2287 26.0019 25.6028C25.6277 25.977 25.1802 26.2696 24.6875 26.4624L18.0106 29.0304C17.7223 29.1495 17.4146 29.2143 17.1028 29.2215ZM27.0764 16.6918L20.3994 19.2957C20.2337 19.3593 20.0832 19.457 19.9577 19.5825C19.8321 19.7081 19.7344 19.8586 19.6708 20.0243L17.1028 26.7012L23.7678 24.0735C23.9335 24.0099 24.084 23.9122 24.2096 23.7866C24.3351 23.6611 24.4328 23.5106 24.4964 23.3449L27.0764 16.6918Z" fill="white"/>
</svg>
