<svg width="46" height="46" viewBox="0 0 46 46" fill="none" xmlns="http://www.w3.org/2000/svg">
<g clip-path="url(#clip0_1_783)">
<path d="M29.6053 24.4395H35.663C36.3842 24.4395 36.9974 24.6918 37.5022 25.1967C38.0068 25.7016 38.2594 26.3145 38.2594 27.0359V27.9009C38.2594 29.8121 37.5832 31.4435 36.2309 32.7958C34.8787 34.1477 33.2469 34.8239 31.3359 34.8239H29.6053C29.1366 34.8239 28.7311 34.9953 28.3884 35.3377C28.0459 35.6803 27.8746 36.0858 27.8746 36.5545V40.0164C27.8746 40.4851 28.046 40.8909 28.3884 41.2336C28.731 41.5757 29.1365 41.7473 29.6053 41.7473H31.3359C33.2111 41.7473 35.0001 41.3819 36.704 40.6521C38.4078 39.9218 39.8814 38.9346 41.1256 37.6904C42.3696 36.4468 43.3565 34.9731 44.0867 33.2692C44.8169 31.5654 45.1821 29.776 45.1821 27.901V8.86301C45.1821 7.41994 44.6775 6.19463 43.6679 5.18463C42.6581 4.17519 41.4319 3.67052 39.9897 3.67052H29.6046C28.1625 3.67052 26.9366 4.17519 25.9268 5.18463C24.9174 6.19463 24.4125 7.41994 24.4125 8.86301V19.2471C24.4125 20.6899 24.9174 21.9152 25.9275 22.9253C26.9368 23.9346 28.1632 24.4395 29.6053 24.4395ZM1.69559 22.9253C2.70494 23.9346 3.93091 24.4395 5.37341 24.4395H11.4311C12.1519 24.4395 12.7656 24.6918 13.2696 25.1967C13.7746 25.7016 14.0268 26.3145 14.0268 27.0359V27.9009C14.0268 29.8121 13.3506 31.4435 11.9989 32.7958C10.6472 34.1477 9.0155 34.8239 7.10357 34.8239H5.37331C4.90454 34.8239 4.49876 34.9953 4.15634 35.3377C3.81412 35.6803 3.6422 36.0858 3.6422 36.5545V40.0164C3.6422 40.4851 3.81402 40.8909 4.15634 41.2336C4.49866 41.5757 4.90444 41.7473 5.37331 41.7473H7.10357C8.97979 41.7473 10.7684 41.3819 12.4728 40.6521C14.1763 39.9218 15.6494 38.9346 16.8936 37.6904C18.1378 36.4468 19.1251 34.9731 19.855 33.2692C20.585 31.5654 20.9507 29.776 20.9507 27.901V8.86301C20.9507 7.41994 20.4456 6.19463 19.4363 5.18463C18.4268 4.17519 17.2009 3.67052 15.7585 3.67052H5.37397C3.93147 3.67052 2.7056 4.17519 1.69626 5.18463C0.686157 6.19463 0.182152 7.41994 0.182152 8.86301V19.2471C0.182056 20.69 0.686161 21.9152 1.69559 22.9253Z" fill="#194668"/>
</g>
<defs>
<clipPath id="clip0_1_783">
<rect width="45" height="45" fill="white" transform="matrix(-1 0 0 -1 45.1821 45.209)"/>
</clipPath>
</defs>
</svg>
