<svg width="28" height="29" viewBox="0 0 28 29" fill="none" xmlns="http://www.w3.org/2000/svg">
<circle cx="14" cy="14.543" r="14" fill="#5586AB"/>
<path d="M16.3674 15.207L15.0273 16.5516C14.4839 17.0969 13.5278 17.1087 12.9726 16.5516L11.6325 15.207L6.81955 20.0357C6.99871 20.1185 7.19624 20.1679 7.40624 20.1679H20.5937C20.8037 20.1679 21.0012 20.1186 21.1803 20.0357L16.3674 15.207Z" fill="white"/>
<path d="M20.5938 8.91797H7.40625C7.19625 8.91797 6.99872 8.96741 6.81963 9.05025L11.9627 14.2103C11.963 14.2107 11.9634 14.2108 11.9637 14.2111C11.964 14.2113 11.9641 14.2116 11.9642 14.2119L13.6364 15.8897C13.8141 16.0673 14.186 16.0673 14.3636 15.8897L16.0356 14.2122C16.0356 14.2122 16.036 14.2114 16.0363 14.2111C16.0363 14.2111 16.0371 14.2107 16.0374 14.2103L21.1803 9.05022C21.0012 8.96734 20.8037 8.91797 20.5938 8.91797ZM6.14956 9.70584C6.05687 9.89328 6 10.1013 6 10.3242V18.7617C6 18.9846 6.05681 19.1927 6.14953 19.3801L10.9709 14.5431L6.14956 9.70584ZM21.8504 9.70578L17.0292 14.5431L21.8504 19.3802C21.9431 19.1927 22 18.9847 22 18.7617V10.3242C22 10.1013 21.9431 9.89322 21.8504 9.70578Z" fill="white"/>
</svg>
