<svg width="20" height="20" viewBox="0 0 20 20" fill="none" xmlns="http://www.w3.org/2000/svg">
<path d="M19.829 9.55615C19.829 4.30889 15.5763 0.0561523 10.329 0.0561523C5.08178 0.0561523 0.829041 4.30889 0.829041 9.55615C0.829041 14.8034 5.08178 19.0562 10.329 19.0562C10.3847 19.0562 10.4404 19.0562 10.496 19.0524V11.6603H8.45502V9.28154H10.496V7.52998C10.496 5.5001 11.7355 4.39424 13.5464 4.39424C14.4148 4.39424 15.1607 4.45732 15.3759 4.48701V6.60967H14.129C13.1456 6.60967 12.9527 7.07725 12.9527 7.76377V9.27783H15.3091L15.0011 11.6565H12.9527V18.6888C16.9234 17.5495 19.829 13.8942 19.829 9.55615Z" fill="#194668"/>
</svg>
