<svg width="44" height="45" viewBox="0 0 44 45" fill="none" xmlns="http://www.w3.org/2000/svg">
<path d="M5.84375 10.0562C5.84375 9.87382 5.77132 9.69895 5.64239 9.57002C5.51345 9.44109 5.33859 9.36865 5.15625 9.36865C4.97391 9.36865 4.79905 9.44109 4.67011 9.57002C4.54118 9.69895 4.46875 9.87382 4.46875 10.0562V22.603C4.46875 22.9677 4.61362 23.3174 4.87148 23.5753C5.12934 23.8332 5.47908 23.978 5.84375 23.978H9.45312C9.63546 23.978 9.81033 23.9056 9.93926 23.7767C10.0682 23.6477 10.1406 23.4729 10.1406 23.2905C10.1406 23.1082 10.0682 22.9333 9.93926 22.8044C9.81033 22.6755 9.63546 22.603 9.45312 22.603H5.84375V10.0562ZM39.5312 10.0562C39.5312 9.87382 39.4588 9.69895 39.3299 9.57002C39.201 9.44109 39.0261 9.36865 38.8438 9.36865C38.6614 9.36865 38.4865 9.44109 38.3576 9.57002C38.2287 9.69895 38.1562 9.87382 38.1562 10.0562V22.603H34.2031C34.0208 22.603 33.8459 22.6755 33.717 22.8044C33.5881 22.9333 33.5156 23.1082 33.5156 23.2905C33.5156 23.4729 33.5881 23.6477 33.717 23.7767C33.8459 23.9056 34.0208 23.978 34.2031 23.978H38.1562C38.5209 23.978 38.8707 23.8332 39.1285 23.5753C39.3864 23.3174 39.5312 22.9677 39.5312 22.603V10.0562Z" fill="#194668"/>
<path d="M33.7985 10.5718C33.7308 10.5121 33.652 10.4663 33.5666 10.437C33.4812 10.4077 33.3909 10.3956 33.3007 10.4012C33.2106 10.4069 33.1225 10.4302 33.0414 10.4699C32.9603 10.5096 32.8879 10.5649 32.8281 10.6326C32.7684 10.7004 32.7226 10.7792 32.6934 10.8646C32.6641 10.95 32.6519 11.0403 32.6576 11.1304C32.6632 11.2206 32.6866 11.3087 32.7263 11.3898C32.766 11.4708 32.8213 11.5433 32.889 11.603L34.4472 12.978H9.47307L10.9546 11.5893C11.0877 11.4646 11.1659 11.2921 11.1718 11.1098C11.1777 10.9275 11.111 10.7503 10.9863 10.6172C10.8615 10.4841 10.6891 10.406 10.5067 10.4C10.3244 10.3941 10.1472 10.4608 10.0141 10.5855L7.26413 13.1637C7.13329 13.2862 7.0555 13.4551 7.04734 13.6342C7.03919 13.8132 7.10131 13.9884 7.22048 14.1224L9.97048 17.2161C10.0305 17.2836 10.1032 17.3386 10.1844 17.378C10.2657 17.4174 10.3539 17.4404 10.444 17.4457C10.5342 17.451 10.6245 17.4385 10.7098 17.4089C10.7951 17.3793 10.8737 17.3332 10.9412 17.2732C11.0087 17.2132 11.0637 17.1405 11.1031 17.0593C11.1425 16.978 11.1655 16.8898 11.1708 16.7996C11.1761 16.7095 11.1636 16.6192 11.134 16.5339C11.1044 16.4486 11.0583 16.3699 10.9983 16.3025L9.26545 14.353H34.6706L32.844 16.2873C32.7805 16.3527 32.7307 16.43 32.6974 16.5148C32.6641 16.5995 32.648 16.6901 32.6499 16.7811C32.6519 16.8722 32.672 16.9619 32.709 17.0452C32.7459 17.1284 32.799 17.2035 32.8653 17.266C32.9315 17.3286 33.0095 17.3773 33.0947 17.4094C33.1799 17.4416 33.2707 17.4565 33.3617 17.4532C33.4527 17.45 33.5422 17.4287 33.6249 17.3906C33.7076 17.3525 33.782 17.2983 33.8436 17.2313L36.7655 14.1375C36.8288 14.0704 36.878 13.9913 36.9101 13.9048C36.9422 13.8184 36.9566 13.7263 36.9524 13.6342C36.9482 13.542 36.9255 13.4517 36.8856 13.3685C36.8458 13.2853 36.7896 13.2109 36.7204 13.1499L33.7985 10.5718Z" fill="#194668"/>
<path fill-rule="evenodd" clip-rule="evenodd" d="M4.29688 27.4155C4.29688 27.0509 4.44174 26.7011 4.6996 26.4433C4.95747 26.1854 5.3072 26.0405 5.67188 26.0405H38.1562C38.5209 26.0405 38.8707 26.1854 39.1285 26.4433C39.3864 26.7011 39.5312 27.0509 39.5312 27.4155V34.978C39.5312 35.3427 39.3864 35.6924 39.1285 35.9503C38.8707 36.2082 38.5209 36.353 38.1562 36.353H5.67188C5.3072 36.353 4.95747 36.2082 4.6996 35.9503C4.44174 35.6924 4.29688 35.3427 4.29688 34.978V27.4155ZM9.10938 27.4155H5.67188V34.978H38.1562V27.4155H34.5469V30.5093C34.5469 30.6916 34.4744 30.8665 34.3455 30.9954C34.2166 31.1243 34.0417 31.1968 33.8594 31.1968C33.677 31.1968 33.5022 31.1243 33.3732 30.9954C33.2443 30.8665 33.1719 30.6916 33.1719 30.5093V27.4155H30.7656V29.478C30.7656 29.6604 30.6932 29.8352 30.5643 29.9642C30.4353 30.0931 30.2605 30.1655 30.0781 30.1655C29.8958 30.1655 29.7209 30.0931 29.592 29.9642C29.4631 29.8352 29.3906 29.6604 29.3906 29.478V27.4155H26.6406V29.478C26.6406 29.6604 26.5682 29.8352 26.4393 29.9642C26.3103 30.0931 26.1355 30.1655 25.9531 30.1655C25.7708 30.1655 25.5959 30.0931 25.467 29.9642C25.3381 29.8352 25.2656 29.6604 25.2656 29.478V27.4155H22.8594V30.5093C22.8594 30.6916 22.7869 30.8665 22.658 30.9954C22.5291 31.1243 22.3542 31.1968 22.1719 31.1968C21.9895 31.1968 21.8147 31.1243 21.6857 30.9954C21.5568 30.8665 21.4844 30.6916 21.4844 30.5093V27.4155H18.7344V29.478C18.7344 29.6604 18.6619 29.8352 18.533 29.9642C18.4041 30.0931 18.2292 30.1655 18.0469 30.1655C17.8645 30.1655 17.6897 30.0931 17.5607 29.9642C17.4318 29.8352 17.3594 29.6604 17.3594 29.478V27.4155H14.6094V29.478C14.6094 29.6604 14.5369 29.8352 14.408 29.9642C14.2791 30.0931 14.1042 30.1655 13.9219 30.1655C13.7395 30.1655 13.5647 30.0931 13.4357 29.9642C13.3068 29.8352 13.2344 29.6604 13.2344 29.478V27.4155H10.4844V30.5093C10.4844 30.6916 10.4119 30.8665 10.283 30.9954C10.1541 31.1243 9.97921 31.1968 9.79688 31.1968C9.61454 31.1968 9.43967 31.1243 9.31074 30.9954C9.18181 30.8665 9.10938 30.6916 9.10938 30.5093V27.4155Z" fill="#194668"/>
</svg>
