<svg width="34" height="35" viewBox="0 0 34 35" fill="none" xmlns="http://www.w3.org/2000/svg">
<g clip-path="url(#clip0_1_149)">
<path d="M33.6181 6.30079L17.1847 0.634123C17.065 0.592825 16.935 0.592825 16.8153 0.634123L0.381933 6.30079C0.270469 6.33922 0.173769 6.41146 0.105307 6.50745C0.0368454 6.60343 3.30944e-05 6.71839 0 6.83629L0 34.0363C0 34.1866 0.0597022 34.3307 0.165973 34.437C0.272243 34.5433 0.416377 34.603 0.566667 34.603H3.4C3.55029 34.603 3.69442 34.5433 3.80069 34.437C3.90696 34.3307 3.96667 34.1866 3.96667 34.0363V16.4696H30.0333V34.0363C30.0333 34.1866 30.093 34.3307 30.1993 34.437C30.3056 34.5433 30.4497 34.603 30.6 34.603H33.4333C33.5836 34.603 33.7278 34.5433 33.834 34.437C33.9403 34.3307 34 34.1866 34 34.0363V6.83629C34 6.71839 33.9632 6.60343 33.8947 6.50745C33.8262 6.41146 33.7295 6.33922 33.6181 6.30079ZM2.83333 15.903V33.4696H1.13333V11.9363H2.83333V15.903ZM30.0333 15.3363H3.96667V14.203H30.0333V15.3363ZM30.0333 13.0696H3.96667V11.9363H30.0333V13.0696ZM32.8667 33.4696H31.1667V11.9363H32.8667V33.4696ZM32.8667 10.803H1.13333V7.24032L17 1.76916L32.8667 7.24032V10.803Z" fill="#194668"/>
<path d="M28.0199 25.0262L25.9233 23.9779L24.0533 20.2379C23.9123 19.9557 23.6952 19.7187 23.4265 19.5534C23.1578 19.3882 22.8483 19.3014 22.5329 19.3029H11.467C11.1511 19.3018 10.8413 19.3893 10.5726 19.5554C10.3039 19.7214 10.087 19.9594 9.94666 20.2424L8.07666 23.9824L5.97999 25.0307C5.88605 25.0777 5.807 25.1498 5.75167 25.2391C5.69634 25.3283 5.66689 25.4312 5.66663 25.5362V33.4695C5.66663 34.0955 6.17401 34.6029 6.79996 34.6029H9.06663C9.69258 34.6029 10.2 34.0955 10.2 33.4695V31.7695H23.8V33.4695C23.8 34.0955 24.3073 34.6029 24.9333 34.6029H27.2C27.8259 34.6029 28.3333 34.0955 28.3333 33.4695V25.5362C28.3339 25.4304 28.3048 25.3266 28.2495 25.2364C28.1941 25.1463 28.1146 25.0735 28.0199 25.0262ZM10.9604 20.7496C11.0071 20.6552 11.0794 20.5758 11.1689 20.5204C11.2584 20.465 11.3617 20.4359 11.467 20.4362H22.5329C22.6382 20.4359 22.7415 20.465 22.831 20.5204C22.9206 20.5758 22.9928 20.6552 23.0395 20.7496L24.5831 23.8362H9.41683L10.9604 20.7496ZM9.06663 33.4695H6.79996V31.7695H9.06663V33.4695ZM27.2 33.4695H24.9333V31.7695H27.2V33.4695ZM27.2 30.6362H6.79996V25.8864L8.63369 24.9695H25.3662L27.2 25.8864V30.6362Z" fill="#194668"/>
<path d="M10.7667 26.1029H9.06668C8.44073 26.1029 7.93335 26.6103 7.93335 27.2362V28.3696C7.93335 28.9955 8.44073 29.5029 9.06668 29.5029H10.7667C11.3926 29.5029 11.9 28.9955 11.9 28.3696V27.2362C11.9 26.6103 11.3926 26.1029 10.7667 26.1029ZM10.7667 28.3696H9.06668V27.2362H10.7667V28.3696ZM24.9333 26.1029H23.2333C22.6074 26.1029 22.1 26.6103 22.1 27.2362V28.3696C22.1 28.9955 22.6074 29.5029 23.2333 29.5029H24.9333C25.5593 29.5029 26.0667 28.9955 26.0667 28.3696V27.2362C26.0667 26.6103 25.5593 26.1029 24.9333 26.1029ZM24.9333 28.3696H23.2333V27.2362H24.9333V28.3696ZM19.8333 26.1029H14.1667C13.5407 26.1029 13.0333 26.6103 13.0333 27.2362V28.3696C13.0333 28.9955 13.5407 29.5029 14.1667 29.5029H19.8333C20.4593 29.5029 20.9667 28.9955 20.9667 28.3696V27.2362C20.9667 26.6103 20.4593 26.1029 19.8333 26.1029ZM19.8333 28.3696H14.1667V27.2362H19.8333V28.3696Z" fill="#194668"/>
</g>
<defs>
<clipPath id="clip0_1_149">
<rect width="34" height="34" fill="white" transform="translate(0 0.603027)"/>
</clipPath>
</defs>
</svg>
