<svg width="34" height="34" viewBox="0 0 34 34" fill="none" xmlns="http://www.w3.org/2000/svg">
<path d="M12.5244 27.8688C12.7642 28.1435 13.1032 28.3118 13.467 28.3367C13.8308 28.3616 14.1896 28.241 14.4645 28.0015L16.9877 25.8015L19.5287 28.0311C19.7899 28.26 20.113 28.3721 20.4355 28.3721C20.7152 28.3722 20.9882 28.287 21.2182 28.1278C21.4482 27.9687 21.6243 27.7432 21.7228 27.4815C21.8213 27.2197 21.8377 26.9341 21.7697 26.6628C21.7017 26.3915 21.5526 26.1474 21.3423 25.9631L19.079 23.9776L20.2485 22.9587C20.3035 22.9174 20.3557 22.8727 20.4052 22.8239C22.2745 20.9498 22.2745 17.9021 20.3997 16.0232C18.5242 14.1621 15.4717 14.1621 13.5907 16.028C11.7207 17.9014 11.7207 20.9498 13.5907 22.8232C13.6382 22.8707 13.689 22.9147 13.742 22.9539L14.9011 23.9707L12.6564 25.928C12.3819 26.1681 12.2138 26.5073 12.1891 26.8711C12.1643 27.235 12.2849 27.5938 12.5244 27.8688ZM15.5329 17.9757C15.9222 17.5906 16.4474 17.3742 16.9949 17.3733C17.5425 17.3724 18.0684 17.5871 18.4589 17.9709C18.8331 18.3468 19.0482 18.8524 19.0593 19.3827C19.0704 19.913 18.8768 20.4272 18.5187 20.8185L16.9939 22.1488L15.4779 20.8185C15.1204 20.4282 14.9268 19.9153 14.937 19.3861C14.9472 18.8569 15.1606 18.3519 15.5329 17.9757Z" fill="white"/>
<path d="M29.6597 10.8999L28.9722 10.2124L28.0001 9.24031V1.55956C28.0001 1.19488 27.8552 0.845149 27.5973 0.587286C27.3395 0.329423 26.9897 0.184558 26.6251 0.184558C26.2604 0.184558 25.9106 0.329423 25.6528 0.587286C25.3949 0.845149 25.2501 1.19488 25.2501 1.55956V6.49031L20.1522 1.3925C19.7702 1.00823 19.3157 0.703606 18.8151 0.496257C18.3145 0.288908 17.7777 0.182962 17.2359 0.184558H16.7636C16.2217 0.183038 15.685 0.289018 15.1844 0.496363C14.6838 0.703707 14.2293 1.0083 13.8472 1.3925L5.02793 10.2124L4.34043 10.8999L0.902926 14.3374C0.771599 14.4643 0.666849 14.616 0.594786 14.7838C0.522724 14.9515 0.484793 15.1319 0.483206 15.3145C0.48162 15.4971 0.516409 15.6781 0.585545 15.8471C0.654682 16.0161 0.75678 16.1696 0.885882 16.2987C1.01498 16.4278 1.16851 16.5299 1.33749 16.5991C1.50647 16.6682 1.68753 16.703 1.8701 16.7014C2.05267 16.6998 2.2331 16.6619 2.40086 16.5898C2.56861 16.5178 2.72034 16.413 2.84718 16.2817L3.93755 15.1913V31.8096C3.93755 32.1742 4.08242 32.524 4.34028 32.7818C4.59814 33.0397 4.94788 33.1846 5.31255 33.1846H28.6876C29.0522 33.1846 29.402 33.0397 29.6598 32.7818C29.9177 32.524 30.0626 32.1742 30.0626 31.8096V15.1913L31.1529 16.2817C31.4211 16.5505 31.7731 16.6846 32.1251 16.6846C32.4771 16.6846 32.8291 16.5505 33.0972 16.2817C33.355 16.0238 33.4998 15.6742 33.4998 15.3096C33.4998 14.945 33.355 14.5953 33.0972 14.3374L29.6597 10.8999ZM15.7921 3.33675C16.0505 3.07988 16.3999 2.93535 16.7642 2.93456H17.2366C17.5982 2.93456 17.9529 3.081 18.2087 3.33675L24.6808 9.80956H9.3193L15.7921 3.33675ZM27.3126 30.4346H6.68755V12.5596H27.3126V30.4346Z" fill="white"/>
</svg>
