<svg width="20" height="20" viewBox="0 0 20 20" fill="none" xmlns="http://www.w3.org/2000/svg">
<g clip-path="url(#clip0_1_693)">
<path d="M10.329 0.0561523C5.08315 0.0561523 0.829041 4.31026 0.829041 9.55615C0.829041 14.802 5.08315 19.0562 10.329 19.0562C15.5749 19.0562 19.829 14.802 19.829 9.55615C19.829 4.31026 15.5749 0.0561523 10.329 0.0561523ZM7.56847 14.4175H5.25478V7.45673H7.56844L7.56847 14.4175ZM6.41166 6.50621H6.3966C5.62019 6.50621 5.11807 5.97176 5.11807 5.30379C5.11807 4.62075 5.63556 4.10107 6.42706 4.10107C7.21853 4.10107 7.70559 4.62075 7.72066 5.30379C7.72066 5.97176 7.21853 6.50624 6.41166 6.50624V6.50621ZM15.9111 14.4175H13.5977V10.6936C13.5977 9.7578 13.2628 9.11952 12.4256 9.11952C11.7865 9.11952 11.4058 9.55007 11.2386 9.96565C11.1774 10.1144 11.1624 10.3223 11.1624 10.5303V14.4175H8.8489C8.8489 14.4175 8.87921 8.10974 8.8489 7.45673H11.1624V8.44228C11.4699 7.96802 12.02 7.29337 13.2475 7.29337C14.7698 7.29337 15.9111 8.2882 15.9111 10.4262V14.4175Z" fill="#194668"/>
</g>
<defs>
<clipPath id="clip0_1_693">
<rect width="19" height="19" fill="white" transform="translate(0.829041 0.0561523)"/>
</clipPath>
</defs>
</svg>
