<svg width="12" height="17" viewBox="0 0 12 17" fill="none" xmlns="http://www.w3.org/2000/svg">
<path d="M6 0.682007C2.89838 0.682007 0.375 3.20538 0.375 6.30701C0.375 7.35494 0.665281 8.37763 1.21466 9.26488L5.67981 16.4604C5.72186 16.5282 5.78051 16.5841 5.85021 16.6229C5.9199 16.6617 5.99834 16.682 6.07809 16.682H6.08181C6.16219 16.6814 6.24106 16.6601 6.31084 16.6202C6.38061 16.5803 6.43895 16.5231 6.48025 16.4541L10.8316 9.18888C11.3507 8.32038 11.625 7.32385 11.625 6.30701C11.625 3.20538 9.10163 0.682007 6 0.682007ZM10.0271 8.70757L6.071 15.3128L2.01147 8.77094C1.55419 8.03244 1.30625 7.18044 1.30625 6.30701C1.30625 3.72232 3.41531 1.61326 6 1.61326C8.58469 1.61326 10.6906 3.72232 10.6906 6.30701C10.6906 7.15454 10.459 7.98476 10.0271 8.70757Z" fill="white"/>
<path d="M6 3.49451C4.44919 3.49451 3.1875 4.75619 3.1875 6.30701C3.1875 7.84791 4.42866 9.11951 6 9.11951C7.59072 9.11951 8.8125 7.83098 8.8125 6.30701C8.8125 4.75619 7.55081 3.49451 6 3.49451ZM6 8.18826C4.96072 8.18826 4.11875 7.34348 4.11875 6.30701C4.11875 5.27313 4.96613 4.42576 6 4.42576C7.03387 4.42576 7.87813 5.27313 7.87813 6.30701C7.87813 7.32835 7.05575 8.18826 6 8.18826Z" fill="white"/>
</svg>
