<svg width="16" height="16" viewBox="0 0 16 16" fill="none" xmlns="http://www.w3.org/2000/svg">
<g clip-path="url(#clip0_1_300)">
<path d="M7.87433 0.205322C5.11737 0.205322 2.87432 2.44838 2.87432 5.20533C2.87432 6.03297 3.08124 6.85357 3.47461 7.58143L7.6009 15.0442C7.65583 15.1437 7.76051 15.2053 7.87433 15.2053C7.98814 15.2053 8.09282 15.1437 8.14775 15.0442L12.2756 7.57896C12.6674 6.85357 12.8743 6.03294 12.8743 5.2053C12.8743 2.44838 10.6313 0.205322 7.87433 0.205322ZM7.87433 7.70532C6.49585 7.70532 5.37434 6.58381 5.37434 5.20533C5.37434 3.82686 6.49585 2.70534 7.87433 2.70534C9.2528 2.70534 10.3743 3.82686 10.3743 5.20533C10.3743 6.58381 9.2528 7.70532 7.87433 7.70532Z" fill="#194668"/>
</g>
<defs>
<clipPath id="clip0_1_300">
<rect width="15" height="15" fill="white" transform="translate(0.374329 0.205322)"/>
</clipPath>
</defs>
</svg>
