<svg width="18" height="22" viewBox="0 0 18 22" fill="none" xmlns="http://www.w3.org/2000/svg">
<path fill-rule="evenodd" clip-rule="evenodd" d="M9 0.480469C5.277 0.480469 2.25 3.53447 2.25 7.30147C2.25 8.57747 2.812 10.1605 3.63 11.7395C5.431 15.2165 8.431 18.7185 8.431 18.7185C8.50141 18.8005 8.58871 18.8663 8.68692 18.9114C8.78513 18.9565 8.89192 18.9799 9 18.9799C9.10808 18.9799 9.21487 18.9565 9.31308 18.9114C9.41129 18.8663 9.49859 18.8005 9.569 18.7185C9.569 18.7185 12.569 15.2165 14.37 11.7395C15.188 10.1605 15.75 8.57747 15.75 7.30147C15.75 3.53447 12.723 0.480469 9 0.480469ZM9 4.48047C8.28349 4.49979 7.60282 4.798 7.10287 5.31162C6.60292 5.82524 6.32317 6.5137 6.32317 7.23047C6.32317 7.94724 6.60292 8.6357 7.10287 9.14932C7.60282 9.66294 8.28349 9.96114 9 9.98047C9.71651 9.96114 10.3972 9.66294 10.8971 9.14932C11.3971 8.6357 11.6768 7.94724 11.6768 7.23047C11.6768 6.5137 11.3971 5.82524 10.8971 5.31162C10.3972 4.798 9.71651 4.49979 9 4.48047Z" fill="#194668"/>
<path fill-rule="evenodd" clip-rule="evenodd" d="M13.784 16.6074C14.597 16.8514 15.267 17.1534 15.73 17.5074C16.03 17.7354 16.25 17.9584 16.25 18.2304C16.25 18.3904 16.159 18.5354 16.031 18.6804C15.819 18.9194 15.504 19.1344 15.114 19.3344C13.736 20.0394 11.508 20.4804 9 20.4804C6.492 20.4804 4.264 20.0394 2.886 19.3344C2.496 19.1344 2.181 18.9194 1.969 18.6804C1.841 18.5354 1.75 18.3904 1.75 18.2304C1.75 17.9584 1.97 17.7354 2.27 17.5074C2.733 17.1534 3.403 16.8514 4.216 16.6074C4.40656 16.5502 4.56655 16.4195 4.66079 16.2443C4.75503 16.069 4.77579 15.8635 4.7185 15.6729C4.66121 15.4824 4.53057 15.3224 4.35532 15.2281C4.18007 15.1339 3.97456 15.1132 3.784 15.1704C2.546 15.5434 1.584 16.0544 1.006 16.6194C0.498 17.1144 0.25 17.6684 0.25 18.2304C0.25 18.9324 0.647 19.6324 1.454 20.2164C2.87 21.2404 5.714 21.9804 9 21.9804C12.286 21.9804 15.13 21.2404 16.546 20.2164C17.353 19.6324 17.75 18.9324 17.75 18.2304C17.75 17.6684 17.502 17.1144 16.994 16.6194C16.416 16.0544 15.454 15.5434 14.216 15.1704C14.1216 15.1421 14.0226 15.1326 13.9246 15.1425C13.8266 15.1524 13.7315 15.1815 13.6447 15.2281C13.5579 15.2748 13.4812 15.3381 13.4189 15.4144C13.3565 15.4907 13.3099 15.5786 13.2815 15.6729C13.2531 15.7673 13.2436 15.8663 13.2535 15.9643C13.2634 16.0624 13.2925 16.1575 13.3392 16.2443C13.3859 16.331 13.4492 16.4078 13.5255 16.4701C13.6018 16.5324 13.6896 16.5791 13.784 16.6074Z" fill="#194668"/>
</svg>
