<svg width="513" height="512" viewBox="0 0 513 512" fill="none" xmlns="http://www.w3.org/2000/svg">
<g clip-path="url(#clip0_22_25)">
<path d="M486.961 441.914H144.589C141.234 441.914 137.912 441.253 134.812 439.97C131.712 438.686 128.896 436.804 126.524 434.432C124.151 432.059 122.27 429.243 120.986 426.143C119.702 423.044 119.041 419.722 119.041 416.367C119.041 413.012 119.702 409.69 120.986 406.59C122.27 403.49 124.151 400.674 126.524 398.302C128.896 395.929 131.712 394.048 134.812 392.764C137.912 391.48 141.234 390.819 144.589 390.819H486.952C493.728 390.818 500.227 393.508 505.019 398.299C509.81 403.089 512.503 409.587 512.504 416.362C512.505 423.138 509.815 429.637 505.025 434.429C500.234 439.22 493.737 441.913 486.961 441.914ZM486.961 281.552H144.589C137.813 281.552 131.315 278.86 126.524 274.069C121.733 269.278 119.041 262.78 119.041 256.004C119.041 249.229 121.733 242.73 126.524 237.939C131.315 233.148 137.813 230.457 144.589 230.457H486.952C493.728 230.455 500.227 233.146 505.019 237.936C509.81 242.727 512.503 249.224 512.504 256C512.505 262.776 509.815 269.274 505.025 274.066C500.234 278.858 493.737 281.551 486.961 281.552ZM486.961 121.189H144.589C141.234 121.189 137.912 120.529 134.812 119.245C131.712 117.961 128.896 116.079 126.524 113.707C124.151 111.334 122.27 108.518 120.986 105.418C119.702 102.319 119.041 98.9967 119.041 95.6417C119.041 92.2868 119.702 88.9647 120.986 85.8651C122.27 82.7655 124.151 79.9492 126.524 77.5768C128.896 75.2045 131.712 73.3227 134.812 72.0388C137.912 70.7549 141.234 70.0941 144.589 70.0941H486.952C493.728 70.093 500.227 72.7835 505.019 77.5738C509.81 82.3641 512.503 88.8618 512.504 95.6375C512.505 102.413 509.815 108.912 505.025 113.704C500.234 118.496 493.737 121.188 486.961 121.189Z" fill="white"/>
<path d="M34.8105 131.928C53.7596 131.928 69.1209 116.567 69.1209 97.6175C69.1209 78.6683 53.7596 63.307 34.8105 63.307C15.8613 63.307 0.5 78.6683 0.5 97.6175C0.5 116.567 15.8613 131.928 34.8105 131.928Z" fill="white"/>
<path d="M34.8105 290.315C53.7596 290.315 69.1209 274.953 69.1209 256.004C69.1209 237.055 53.7596 221.694 34.8105 221.694C15.8613 221.694 0.5 237.055 0.5 256.004C0.5 274.953 15.8613 290.315 34.8105 290.315Z" fill="white"/>
<path d="M34.8105 448.701C53.7596 448.701 69.1209 433.34 69.1209 414.391C69.1209 395.442 53.7596 380.081 34.8105 380.081C15.8613 380.081 0.5 395.442 0.5 414.391C0.5 433.34 15.8613 448.701 34.8105 448.701Z" fill="white"/>
</g>
<defs>
<clipPath id="clip0_22_25">
<rect width="512" height="512" fill="white" transform="translate(0.5)"/>
</clipPath>
</defs>
</svg>
