<svg width="28" height="31" viewBox="0 0 28 31" fill="none" xmlns="http://www.w3.org/2000/svg">
<path d="M1.12793 0.20874C0.879289 0.20874 0.640832 0.307512 0.465017 0.483328C0.289202 0.659143 0.19043 0.8976 0.19043 1.14624V29.2712C0.19043 29.5199 0.289202 29.7583 0.465017 29.9342C0.640832 30.11 0.879289 30.2087 1.12793 30.2087C1.37657 30.2087 1.61503 30.11 1.79084 29.9342C1.96666 29.7583 2.06543 29.5199 2.06543 29.2712V16.8312C3.08293 16.0437 6.84418 13.6162 12.7317 15.3975C20.8029 17.8487 27.2629 8.32374 27.5329 7.91749C27.6387 7.75858 27.6934 7.57117 27.6898 7.38032C27.6862 7.18947 27.6244 7.00427 27.5127 6.84948C27.4009 6.6947 27.2446 6.5777 27.0647 6.51413C26.8847 6.45056 26.6896 6.44344 26.5054 6.49374C26.4404 6.51374 19.9867 8.20874 14.1642 4.12999C9.71668 1.01249 4.36793 1.28249 2.06543 1.58749V1.14624C2.06543 0.8976 1.96666 0.659143 1.79084 0.483328C1.61503 0.307512 1.37657 0.20874 1.12793 0.20874ZM13.0904 5.66374C17.3529 8.64999 21.8404 8.89749 24.5392 8.68374C22.3792 11.135 18.0379 15.0462 13.2742 13.6025C7.92543 11.98 4.07418 13.4087 2.06543 14.5775V3.48249C3.93918 3.21499 9.04543 2.83249 13.0904 5.66374Z" fill="#194668"/>
</svg>
