<svg width="32" height="33" viewBox="0 0 32 33" fill="none" xmlns="http://www.w3.org/2000/svg">
<path d="M30.9776 29.8315L23.3616 21.9104C25.3205 19.5863 26.3942 16.6441 26.3927 13.6046C26.3927 6.48059 20.5967 0.68457 13.4727 0.68457C6.34875 0.68457 0.552734 6.48059 0.552734 13.6046C0.552734 20.7285 6.34875 26.5245 13.4727 26.5245C16.1472 26.5245 18.6958 25.7179 20.8747 24.1866L28.5487 32.1678C28.8694 32.5009 29.3008 32.6846 29.7631 32.6846C30.2007 32.6846 30.6159 32.5177 30.931 32.2144C31.2526 31.9043 31.4382 31.4793 31.4469 31.0326C31.4557 30.5859 31.2869 30.1539 30.9776 29.8315ZM13.4727 4.055C18.7385 4.055 23.0223 8.33882 23.0223 13.6046C23.0223 18.8703 18.7385 23.1541 13.4727 23.1541C8.20698 23.1541 3.92317 18.8703 3.92317 13.6046C3.92317 8.33882 8.20698 4.055 13.4727 4.055Z" fill="white"/>
</svg>
