<svg width="30" height="35" viewBox="0 0 30 35" fill="none" xmlns="http://www.w3.org/2000/svg">
<path d="M1.00079 12.3805H28.9993M1.00079 12.3805V33.8605H28.9993V12.3805M1.00079 12.3805V7.96841C1.00079 6.48564 2.20286 5.28357 3.68563 5.28357H6.55701M28.9993 12.3805V7.96841C28.9993 6.48564 27.7972 5.28357 26.3144 5.28357H23.4362M10.7116 5.28357H19.1745" stroke="white" stroke-width="2.01363" stroke-miterlimit="10" stroke-linecap="round" stroke-linejoin="round"/>
<path d="M5.33826 17.0796H7.10435M11.1907 17.0796H12.9568M17.0432 17.0796H18.8092M22.8956 17.0796H24.6617M5.33826 21.1068H7.10435M11.1907 21.1068H12.9568M17.0432 21.1068H18.8092M22.8956 21.1068H24.6617M5.33826 25.1341H7.10435M11.1907 25.1341H12.9568M17.0432 25.1341H18.8092M22.8956 25.1341H24.6617M5.33826 29.1614H7.10435M11.1907 29.1614H12.9568M17.0432 29.1614H18.8092M22.8956 29.1614H24.6617M10.6241 8.35526V3.47872C10.6241 2.39042 9.74187 1.50818 8.65357 1.50818C7.56527 1.50818 6.68303 2.39042 6.68303 3.47872V8.35526H10.6241ZM23.317 8.35526V3.47872C23.317 2.39042 22.4347 1.50818 21.3464 1.50818C20.2581 1.50818 19.3759 2.39042 19.3759 3.47872V8.35526H23.317Z" stroke="white" stroke-width="2.01363" stroke-miterlimit="10" stroke-linecap="round" stroke-linejoin="round"/>
</svg>
