<svg width="20" height="20" viewBox="0 0 20 20" fill="none" xmlns="http://www.w3.org/2000/svg">
<g clip-path="url(#clip0_1_686)">
<path d="M10.329 0.0561523C8.45012 0.0561523 6.6134 0.613318 5.05113 1.65719C3.48886 2.70106 2.27122 4.18476 1.55219 5.92066C0.833157 7.65656 0.645025 9.56669 1.01158 11.4095C1.37814 13.2523 2.28293 14.9451 3.61153 16.2737C4.94013 17.6023 6.63287 18.5071 8.47569 18.8736C10.3185 19.2402 12.2286 19.052 13.9645 18.333C15.7004 17.614 17.1841 16.3963 18.228 14.8341C19.2719 13.2718 19.829 11.4351 19.829 9.55615C19.829 7.0366 18.8282 4.62023 17.0466 2.83864C15.265 1.05704 12.8486 0.0561523 10.329 0.0561523ZM15.219 7.05615C15.219 7.16365 15.2278 7.27115 15.2278 7.3824C15.2278 10.7162 12.689 14.5624 8.0453 14.5624C6.67125 14.5679 5.32513 14.1745 4.1703 13.4299C4.37055 13.4549 4.57224 13.4666 4.77405 13.4649C5.90664 13.465 7.0067 13.0861 7.89905 12.3887C7.37321 12.3731 6.86506 12.1953 6.44431 11.8795C6.02357 11.5637 5.71084 11.1255 5.54905 10.6249C5.70665 10.6561 5.86715 10.6704 6.0278 10.6674C6.2509 10.6693 6.47326 10.6416 6.68905 10.5849C6.11843 10.4668 5.60591 10.1557 5.23777 9.70404C4.86963 9.25235 4.66835 8.68762 4.6678 8.1049V8.0774C5.01731 8.27113 5.40833 8.37788 5.8078 8.38865C5.2726 8.03103 4.89419 7.48251 4.74991 6.8552C4.60563 6.22789 4.70637 5.56916 5.03155 5.01365C5.66394 5.79501 6.45408 6.43413 7.35034 6.88927C8.24661 7.3444 9.22882 7.60529 10.2328 7.6549C10.192 7.466 10.1723 7.27315 10.174 7.0799C10.1736 6.57361 10.3255 6.0789 10.6101 5.66012C10.8946 5.24134 11.2986 4.91787 11.7694 4.73179C12.2403 4.54571 12.7563 4.50563 13.2502 4.61676C13.7442 4.72789 14.1932 4.98509 14.539 5.3549C15.1033 5.24393 15.6445 5.0372 16.139 4.74365C15.9524 5.32892 15.5574 5.82532 15.029 6.13865C15.5303 6.07636 16.0199 5.94206 16.4828 5.7399C16.1455 6.25217 15.7172 6.69829 15.219 7.05615Z" fill="#194668"/>
</g>
<defs>
<clipPath id="clip0_1_686">
<rect width="19" height="19" fill="white" transform="translate(0.829041 0.0561523)"/>
</clipPath>
</defs>
</svg>
